<mxfile host="app.diagrams.net" agent="Mozilla/5.0 (Windows NT 10.0; Win64; x64) AppleWebKit/537.36 (KHTML, like Gecko) Chrome/133.0.0.0 Safari/537.36" version="26.0.15">
  <diagram name="Page-1" id="TnaklCA65PVXx7Ya86cK">
    <mxGraphModel dx="1434" dy="780" grid="1" gridSize="10" guides="1" tooltips="1" connect="1" arrows="1" fold="1" page="1" pageScale="1" pageWidth="827" pageHeight="1169" math="0" shadow="0">
      <root>
        <mxCell id="0" />
        <mxCell id="1" parent="0" />
        <mxCell id="NpHp3cEMPv_4Nmo3s5uS-1" value="" style="rounded=0;whiteSpace=wrap;html=1;" vertex="1" parent="1">
          <mxGeometry x="120" y="240" width="160" height="170" as="geometry" />
        </mxCell>
        <mxCell id="NpHp3cEMPv_4Nmo3s5uS-2" value="Front-end" style="text;html=1;align=center;verticalAlign=middle;whiteSpace=wrap;rounded=0;" vertex="1" parent="1">
          <mxGeometry x="120" y="380" width="60" height="30" as="geometry" />
        </mxCell>
        <mxCell id="NpHp3cEMPv_4Nmo3s5uS-3" value="" style="whiteSpace=wrap;html=1;aspect=fixed;" vertex="1" parent="1">
          <mxGeometry x="150" y="250" width="110" height="110" as="geometry" />
        </mxCell>
        <mxCell id="NpHp3cEMPv_4Nmo3s5uS-4" value="Browser" style="text;html=1;align=center;verticalAlign=middle;whiteSpace=wrap;rounded=0;" vertex="1" parent="1">
          <mxGeometry x="150" y="330" width="60" height="30" as="geometry" />
        </mxCell>
        <mxCell id="NpHp3cEMPv_4Nmo3s5uS-5" value="Angular" style="whiteSpace=wrap;html=1;aspect=fixed;" vertex="1" parent="1">
          <mxGeometry x="175" y="270" width="60" height="60" as="geometry" />
        </mxCell>
        <mxCell id="NpHp3cEMPv_4Nmo3s5uS-6" value="" style="endArrow=classic;html=1;rounded=0;exitX=1.006;exitY=0.465;exitDx=0;exitDy=0;exitPerimeter=0;entryX=-0.012;entryY=0.444;entryDx=0;entryDy=0;entryPerimeter=0;" edge="1" parent="1" source="NpHp3cEMPv_4Nmo3s5uS-1" target="NpHp3cEMPv_4Nmo3s5uS-17">
          <mxGeometry width="50" height="50" relative="1" as="geometry">
            <mxPoint x="310" y="320" as="sourcePoint" />
            <mxPoint x="450" y="320" as="targetPoint" />
          </mxGeometry>
        </mxCell>
        <mxCell id="NpHp3cEMPv_4Nmo3s5uS-7" value="HTTP request" style="text;html=1;align=center;verticalAlign=middle;whiteSpace=wrap;rounded=0;" vertex="1" parent="1">
          <mxGeometry x="340" y="235" width="60" height="30" as="geometry" />
        </mxCell>
        <mxCell id="NpHp3cEMPv_4Nmo3s5uS-9" value="&lt;font style=&quot;font-size: 18px;&quot;&gt;Client - Server arhitecture&lt;/font&gt;" style="text;html=1;align=center;verticalAlign=middle;whiteSpace=wrap;rounded=0;" vertex="1" parent="1">
          <mxGeometry x="270" y="30" width="220" height="30" as="geometry" />
        </mxCell>
        <mxCell id="NpHp3cEMPv_4Nmo3s5uS-17" value="" style="rounded=0;whiteSpace=wrap;html=1;" vertex="1" parent="1">
          <mxGeometry x="460" y="240" width="390" height="180" as="geometry" />
        </mxCell>
        <mxCell id="NpHp3cEMPv_4Nmo3s5uS-11" value="" style="rounded=0;whiteSpace=wrap;html=1;" vertex="1" parent="1">
          <mxGeometry x="490" y="265" width="120" height="120" as="geometry" />
        </mxCell>
        <mxCell id="NpHp3cEMPv_4Nmo3s5uS-12" value="Rest-API" style="whiteSpace=wrap;html=1;aspect=fixed;" vertex="1" parent="1">
          <mxGeometry x="510" y="275" width="80" height="80" as="geometry" />
        </mxCell>
        <mxCell id="NpHp3cEMPv_4Nmo3s5uS-13" value="Express" style="text;html=1;align=center;verticalAlign=middle;whiteSpace=wrap;rounded=0;" vertex="1" parent="1">
          <mxGeometry x="510" y="355" width="60" height="30" as="geometry" />
        </mxCell>
        <mxCell id="NpHp3cEMPv_4Nmo3s5uS-18" value="" style="rounded=0;whiteSpace=wrap;html=1;" vertex="1" parent="1">
          <mxGeometry x="700" y="265" width="140" height="125" as="geometry" />
        </mxCell>
        <mxCell id="NpHp3cEMPv_4Nmo3s5uS-15" value="Data - access object" style="whiteSpace=wrap;html=1;aspect=fixed;" vertex="1" parent="1">
          <mxGeometry x="710" y="275" width="50" height="50" as="geometry" />
        </mxCell>
        <mxCell id="NpHp3cEMPv_4Nmo3s5uS-19" value="DB-config" style="whiteSpace=wrap;html=1;aspect=fixed;" vertex="1" parent="1">
          <mxGeometry x="777" y="275" width="50" height="50" as="geometry" />
        </mxCell>
        <mxCell id="NpHp3cEMPv_4Nmo3s5uS-14" value="Backend - server" style="text;html=1;align=center;verticalAlign=middle;whiteSpace=wrap;rounded=0;" vertex="1" parent="1">
          <mxGeometry x="460" y="390" width="110" height="30" as="geometry" />
        </mxCell>
        <mxCell id="NpHp3cEMPv_4Nmo3s5uS-21" value="Database" style="text;html=1;align=center;verticalAlign=middle;whiteSpace=wrap;rounded=0;" vertex="1" parent="1">
          <mxGeometry x="705" y="360" width="60" height="30" as="geometry" />
        </mxCell>
        <mxCell id="NpHp3cEMPv_4Nmo3s5uS-22" value="" style="endArrow=classic;html=1;rounded=0;" edge="1" parent="1">
          <mxGeometry width="50" height="50" relative="1" as="geometry">
            <mxPoint x="850" y="324" as="sourcePoint" />
            <mxPoint x="1000" y="324" as="targetPoint" />
          </mxGeometry>
        </mxCell>
        <mxCell id="NpHp3cEMPv_4Nmo3s5uS-24" value="" style="rounded=0;whiteSpace=wrap;html=1;" vertex="1" parent="1">
          <mxGeometry x="1000" y="295" width="120" height="60" as="geometry" />
        </mxCell>
        <mxCell id="NpHp3cEMPv_4Nmo3s5uS-23" value="SQL Server" style="text;html=1;align=center;verticalAlign=middle;whiteSpace=wrap;rounded=0;" vertex="1" parent="1">
          <mxGeometry x="1000" y="315" width="120" height="20" as="geometry" />
        </mxCell>
        <mxCell id="NpHp3cEMPv_4Nmo3s5uS-26" value="GET, POST, PUT, DELETE" style="text;html=1;align=center;verticalAlign=middle;whiteSpace=wrap;rounded=0;" vertex="1" parent="1">
          <mxGeometry x="290" y="265" width="160" height="30" as="geometry" />
        </mxCell>
        <mxCell id="NpHp3cEMPv_4Nmo3s5uS-27" value="JSON" style="text;html=1;align=center;verticalAlign=middle;whiteSpace=wrap;rounded=0;" vertex="1" parent="1">
          <mxGeometry x="340" y="330" width="60" height="30" as="geometry" />
        </mxCell>
        <mxCell id="NpHp3cEMPv_4Nmo3s5uS-29" value="" style="endArrow=classic;html=1;rounded=0;entryX=0.007;entryY=0.568;entryDx=0;entryDy=0;entryPerimeter=0;exitX=1.017;exitY=0.6;exitDx=0;exitDy=0;exitPerimeter=0;" edge="1" parent="1" source="NpHp3cEMPv_4Nmo3s5uS-11" target="NpHp3cEMPv_4Nmo3s5uS-18">
          <mxGeometry width="50" height="50" relative="1" as="geometry">
            <mxPoint x="390" y="410" as="sourcePoint" />
            <mxPoint x="440" y="360" as="targetPoint" />
          </mxGeometry>
        </mxCell>
        <mxCell id="NpHp3cEMPv_4Nmo3s5uS-31" value="" style="endArrow=classic;html=1;rounded=0;entryX=1.017;entryY=0.417;entryDx=0;entryDy=0;entryPerimeter=0;" edge="1" parent="1" target="NpHp3cEMPv_4Nmo3s5uS-11">
          <mxGeometry width="50" height="50" relative="1" as="geometry">
            <mxPoint x="700" y="315" as="sourcePoint" />
            <mxPoint x="625" y="314" as="targetPoint" />
          </mxGeometry>
        </mxCell>
        <mxCell id="NpHp3cEMPv_4Nmo3s5uS-32" value="" style="endArrow=classic;html=1;rounded=0;exitX=-0.005;exitY=0.672;exitDx=0;exitDy=0;exitPerimeter=0;entryX=1.019;entryY=0.571;entryDx=0;entryDy=0;entryPerimeter=0;" edge="1" parent="1">
          <mxGeometry width="50" height="50" relative="1" as="geometry">
            <mxPoint x="459.99999999999994" y="330.00000000000006" as="sourcePoint" />
            <mxPoint x="281.94999999999993" y="330.15" as="targetPoint" />
          </mxGeometry>
        </mxCell>
        <mxCell id="NpHp3cEMPv_4Nmo3s5uS-46" value="Fetch API" style="text;html=1;align=center;verticalAlign=middle;whiteSpace=wrap;rounded=0;" vertex="1" parent="1">
          <mxGeometry x="340" y="285" width="60" height="30" as="geometry" />
        </mxCell>
        <mxCell id="NpHp3cEMPv_4Nmo3s5uS-49" value="&lt;span style=&quot;color: rgb(31, 35, 40); font-family: -apple-system, BlinkMacSystemFont, &amp;quot;Segoe UI&amp;quot;, &amp;quot;Noto Sans&amp;quot;, Helvetica, Arial, sans-serif, &amp;quot;Apple Color Emoji&amp;quot;, &amp;quot;Segoe UI Emoji&amp;quot;; font-size: 16px; text-align: start; background-color: rgb(255, 255, 255);&quot;&gt;Authentication: JWT&amp;nbsp;&lt;/span&gt;" style="text;html=1;align=center;verticalAlign=middle;whiteSpace=wrap;rounded=0;" vertex="1" parent="1">
          <mxGeometry x="260" y="80" width="260" height="30" as="geometry" />
        </mxCell>
        <mxCell id="NpHp3cEMPv_4Nmo3s5uS-50" value="&lt;font style=&quot;font-size: 17px;&quot;&gt;API Testing: Postman&lt;/font&gt;" style="text;html=1;align=center;verticalAlign=middle;whiteSpace=wrap;rounded=0;" vertex="1" parent="1">
          <mxGeometry x="300" y="110" width="180" height="30" as="geometry" />
        </mxCell>
      </root>
    </mxGraphModel>
  </diagram>
</mxfile>
